<?xml version="1.0" encoding="UTF-8"?>
<svg width="32" height="32" viewBox="0 0 32 32" fill="none" xmlns="http://www.w3.org/2000/svg">
  <path d="M16 0C7.163 0 0 7.163 0 16C0 24.837 7.163 32 16 32C24.837 32 32 24.837 32 16C32 7.163 24.837 0 16 0ZM20.5 17.5C20.5 19.433 18.933 21 17 21H12V14H17C18.933 14 20.5 15.567 20.5 17.5ZM17 11H12V7H17C18.933 7 20.5 8.567 20.5 10.5C20.5 12.433 18.933 14 17 14C18.933 14 20.5 15.567 20.5 17.5C20.5 19.433 18.933 21 17 21H12V25H10V11H17Z" fill="#00B4B4"/>
</svg> 